<svg xmlns="http://www.w3.org/2000/svg" viewBox="0 0 628.59 99.8"><defs><style>.cls-1{fill:#939393;}</style></defs><g id="Laag_2" data-name="Laag 2"><g id="Laag_1-2" data-name="Laag 1"><path class="cls-1" d="M0,38.62a1.68,1.68,0,0,1,1.09-.14q18.92,0,37.82,0a1.39,1.39,0,0,0,1.6-1.13c2.36-7.2,4.79-14.37,7.2-21.56Q50,9.09,52.2,2.36a2,2,0,0,1,.44-1c.35.19.35.53.44.8Q58.75,19.11,64.41,36c.26.78.25,1.79.89,2.28s1.7.17,2.56.17h36.46a2.15,2.15,0,0,1,1.09.1c0,.38-.38.46-.61.62q-15.54,11-31.09,22c-.72.51-.56,1-.35,1.65q2.34,7,4.67,13.92,3.61,10.78,7.2,21.56c.08.23.13.47.19.71-.39.18-.56-.12-.77-.26L59.48,80.94c-2.06-1.46-4.13-2.9-6.17-4.38a.91.91,0,0,0-1.26,0Q36.46,87.63,20.84,98.68a1.72,1.72,0,0,1-.8.45c-.23-.28,0-.53.07-.77Q24.74,84.49,29.4,70.6c.9-2.7,1.79-5.41,2.72-8.1a1,1,0,0,0-.45-1.3Q16.25,50.31.86,39.38C.56,39.17.17,39,0,38.62Z"/><path class="cls-1" d="M131.78,39.29a1.71,1.71,0,0,1,1.1-.14q18.9,0,37.81,0a1.38,1.38,0,0,0,1.6-1.13c2.36-7.2,4.79-14.37,7.2-21.56Q181.74,9.76,184,3a2.06,2.06,0,0,1,.44-1c.35.19.35.53.44.8q5.67,16.91,11.33,33.82c.26.78.25,1.79.89,2.28s1.7.17,2.56.17H236.1a2.15,2.15,0,0,1,1.09.11c0,.38-.38.46-.61.62q-15.53,11-31.09,22c-.72.51-.55,1-.35,1.65l4.68,13.92Q213.42,88.21,217,99c.08.23.13.47.19.7-.39.19-.56-.11-.76-.25q-12.6-8.91-25.18-17.84c-2.06-1.46-4.12-2.91-6.17-4.38a.91.91,0,0,0-1.26,0Q168.25,88.3,152.62,99.35a1.76,1.76,0,0,1-.8.45c-.22-.28,0-.53.07-.77q4.63-13.87,9.29-27.76c.9-2.71,1.79-5.41,2.72-8.1a1,1,0,0,0-.45-1.3Q148,51,132.64,40.05C132.34,39.84,132,39.68,131.78,39.29Z"/><path class="cls-1" d="M260.79,37.22a1.68,1.68,0,0,1,1.09-.14q18.92,0,37.81,0A1.4,1.4,0,0,0,301.3,36c2.36-7.2,4.79-14.37,7.19-21.56,1.5-4.48,3-9,4.5-13.45a2,2,0,0,1,.44-1c.35.19.35.53.44.8q5.67,16.91,11.33,33.82c.26.78.25,1.79.89,2.28s1.7.17,2.56.17h36.46a2.16,2.16,0,0,1,1.09.11c0,.38-.38.46-.61.62q-15.54,11-31.09,22c-.73.51-.56,1-.35,1.65q2.34,7,4.67,13.92,3.62,10.77,7.2,21.56c.08.23.13.47.19.7-.39.19-.57-.11-.77-.25L320.27,79.54c-2.06-1.46-4.13-2.91-6.17-4.38a.91.91,0,0,0-1.26,0L281.63,97.28a1.79,1.79,0,0,1-.81.45c-.22-.28,0-.53.07-.77l9.3-27.77c.9-2.7,1.78-5.4,2.72-8.09a1,1,0,0,0-.45-1.3Q277,48.91,261.65,38C261.35,37.77,261,37.61,260.79,37.22Z"/><path class="cls-1" d="M392.57,37.89a1.69,1.69,0,0,1,1.09-.15q18.91,0,37.82,0a1.4,1.4,0,0,0,1.6-1.13c2.36-7.2,4.79-14.38,7.2-21.56q2.25-6.72,4.49-13.45a2,2,0,0,1,.44-1c.35.19.35.52.44.8Q451.32,18.38,457,35.29c.26.78.25,1.79.89,2.27s1.7.18,2.56.18h36.46a2.26,2.26,0,0,1,1.09.1c0,.39-.38.46-.61.63q-15.53,11-31.09,22c-.72.52-.56,1-.35,1.66q2.34,7,4.67,13.92,3.61,10.77,7.2,21.56c.08.23.13.46.19.7-.39.19-.56-.11-.77-.25L452.05,80.21c-2.06-1.46-4.13-2.91-6.17-4.39a.92.92,0,0,0-1.26,0Q429,86.9,413.41,98a1.66,1.66,0,0,1-.8.44c-.23-.28,0-.52.07-.76q4.63-13.89,9.29-27.77c.9-2.7,1.79-5.4,2.72-8.1a1,1,0,0,0-.45-1.29q-15.42-10.89-30.81-21.82C393.13,38.43,392.74,38.28,392.57,37.89Z"/><path class="cls-1" d="M523.18,37.62a1.68,1.68,0,0,1,1.09-.14q18.91,0,37.81,0a1.39,1.39,0,0,0,1.61-1.13c2.36-7.2,4.79-14.37,7.19-21.56,1.5-4.48,3-9,4.5-13.45a2,2,0,0,1,.44-1c.35.19.35.53.44.8Q581.93,18.11,587.59,35c.26.78.25,1.79.89,2.28s1.7.17,2.56.17H627.5a2.16,2.16,0,0,1,1.09.1c0,.38-.38.46-.61.62q-15.54,11-31.09,22c-.73.51-.56,1-.35,1.65q2.34,7,4.67,13.92,3.62,10.78,7.2,21.56c.08.23.12.47.19.71-.39.18-.57-.12-.77-.26L582.66,79.94c-2.06-1.46-4.13-2.9-6.17-4.38a.91.91,0,0,0-1.26,0L544,97.68a1.71,1.71,0,0,1-.81.45c-.22-.28,0-.53.07-.77l9.3-27.76c.9-2.7,1.78-5.41,2.72-8.1a1,1,0,0,0-.45-1.3Q539.43,49.31,524,38.38C523.74,38.17,523.35,38,523.18,37.62Z"/></g></g></svg>